<?xml version="1.0" encoding="UTF-8"?>
<svg xmlns="http://www.w3.org/2000/svg" xmlns:xlink="http://www.w3.org/1999/xlink" width="654px" height="654px" viewBox="0 0 654 654" version="1.1">
<g id="surface1">
<path style=" stroke:none;fill-rule:nonzero;fill:rgb(94.901961%,1.960784%,9.803922%);fill-opacity:1;" d="M 114.4375 554.324219 L 61.753906 554.324219 L 61.753906 545.097656 L 91.136719 545.097656 C 91.136719 534.511719 86.992188 528.371094 78.792969 526.578125 C 76.097656 526.039062 73.347656 525.792969 70.59375 525.851562 L 70.59375 517.617188 C 75.066406 517.617188 77.898438 517.703125 79.039062 517.773438 C 80.175781 517.859375 81.8125 518.1875 83.917969 518.914062 C 94.792969 522.546875 100.230469 531.265625 100.304688 545.097656 L 114.449219 545.097656 L 114.449219 554.3125 Z M 114.4375 554.324219 "/>
<path style=" stroke:none;fill-rule:nonzero;fill:rgb(94.901961%,1.960784%,9.803922%);fill-opacity:1;" d="M 133.984375 572.007812 L 125.058594 572.007812 L 125.058594 562.960938 L 133.984375 562.960938 L 133.984375 572.019531 Z M 134.226562 539.683594 C 134.226562 549.46875 129.6875 554.3125 120.664062 554.3125 L 111.09375 554.3125 L 111.09375 545.109375 L 118.726562 545.109375 C 121.730469 545.109375 123.59375 544.210938 124.476562 542.433594 C 124.890625 541.464844 125.132812 539.527344 125.132812 536.605469 L 125.132812 517.617188 L 134.214844 517.617188 L 134.214844 539.683594 Z M 118.652344 572.019531 L 109.714844 572.019531 L 109.714844 562.960938 L 118.652344 562.960938 Z M 160.519531 510.179688 L 151.59375 510.179688 L 151.59375 501.21875 L 160.519531 501.21875 Z M 174.570312 554.3125 L 160.035156 554.3125 C 158.65625 562.960938 151.28125 567.734375 140.234375 567.734375 L 140.234375 559.980469 C 147.78125 559.980469 151.511719 556.25 151.511719 548.488281 L 151.511719 517.628906 L 160.605469 517.628906 L 160.605469 545.121094 L 174.570312 545.121094 L 174.570312 554.324219 Z M 174.570312 554.3125 "/>
<path style=" stroke:none;fill-rule:nonzero;fill:rgb(94.901961%,1.960784%,9.803922%);fill-opacity:1;" d="M 207.101562 542.675781 C 207.101562 539.839844 206.375 537.347656 204.921875 535.324219 C 203.285156 533.171875 200.71875 531.9375 198.015625 532.003906 C 195.421875 531.894531 192.945312 533.113281 191.453125 535.238281 C 189.996094 537.316406 189.253906 539.8125 189.332031 542.347656 C 189.332031 548.160156 192.90625 552.945312 198.511719 552.945312 C 201.050781 553.039062 203.472656 551.890625 205.003906 549.867188 C 206.46875 547.761719 207.207031 545.238281 207.113281 542.675781 M 224.550781 554.3125 L 212.949219 554.3125 C 209.460938 559 204.59375 561.335938 198.257812 561.335938 C 191.925781 561.335938 187.226562 559 183.726562 554.3125 L 171.3125 554.3125 L 171.3125 545.109375 L 180.082031 545.109375 C 179.996094 544.210938 179.996094 543.316406 179.996094 542.433594 C 179.996094 537.007812 181.703125 532.574219 185.019531 529.097656 C 188.4375 525.621094 192.820312 523.84375 198.257812 523.84375 C 203.683594 523.84375 208.070312 525.621094 211.398438 529.253906 C 214.730469 532.890625 216.4375 537.332031 216.4375 542.757812 L 216.4375 545.097656 L 224.550781 545.097656 Z M 224.550781 554.3125 "/>
<path style=" stroke:none;fill-rule:nonzero;fill:rgb(94.901961%,1.960784%,9.803922%);fill-opacity:1;" d="M 244.933594 539.683594 C 244.933594 549.46875 240.382812 554.3125 231.296875 554.3125 L 221.71875 554.3125 L 221.71875 545.109375 L 229.421875 545.109375 C 232.425781 545.109375 234.300781 544.210938 235.1875 542.433594 C 235.597656 541.464844 235.839844 539.527344 235.839844 536.605469 L 235.839844 502.175781 L 244.921875 502.175781 L 244.921875 539.683594 Z M 262.289062 502.101562 L 253.28125 502.101562 L 253.28125 554.3125 L 262.289062 554.3125 Z M 295.570312 536.28125 C 295.570312 529.980469 292.167969 525.792969 286.972656 525.792969 C 282.175781 525.792969 279.015625 530.394531 279.015625 535.890625 C 279.015625 541.390625 282.417969 546.152344 287.371094 546.152344 C 292.339844 546.152344 295.570312 541.621094 295.570312 536.292969 M 304.898438 553.175781 C 304.898438 562.804688 299.058594 567.648438 287.289062 567.648438 L 287.289062 560.453125 C 292.980469 560.296875 295.8125 556.492188 295.984375 550.183594 C 294.433594 552.933594 291.515625 554.300781 287.382812 554.300781 C 276.910156 554.300781 269.921875 546.636719 269.921875 535.890625 C 269.921875 525.136719 277.152344 517.53125 287.371094 517.53125 C 297.605469 517.53125 304.910156 525.453125 304.910156 536.121094 L 304.910156 553.175781 Z M 375.515625 517.53125 L 366.675781 517.53125 L 366.675781 508.570312 L 375.515625 508.570312 Z M 360.085938 517.53125 L 351.246094 517.53125 L 351.246094 508.570312 L 360.085938 508.570312 Z M 397.425781 517.617188 L 397.425781 541.390625 C 397.425781 549.46875 392.882812 554.3125 384.855469 554.3125 L 355.386719 554.3125 C 338.191406 554.3125 329.578125 546.71875 329.578125 531.4375 L 329.578125 517.628906 L 338.589844 517.628906 L 338.589844 531.4375 C 338.589844 536.691406 340.128906 540.410156 343.214844 542.515625 C 345.640625 544.210938 349.394531 545.097656 354.335938 545.097656 L 376.570312 545.097656 C 380.710938 545.097656 383.558594 544.613281 385.097656 543.570312 C 387.375 542.117188 388.511719 539.285156 388.511719 535.164062 L 388.511719 517.617188 L 397.4375 517.617188 Z M 444.417969 502.175781 L 444.417969 541.621094 C 444.417969 549.300781 438.894531 554.3125 430.125 554.3125 L 405.867188 554.3125 L 405.867188 545.109375 L 418.28125 545.109375 L 408.058594 507.929688 L 417.628906 507.929688 L 427.777344 545.109375 C 430.296875 545.109375 432.074219 544.527344 433.300781 543.316406 C 434.835938 541.777344 435.574219 539.199219 435.574219 535.566406 L 435.574219 502.175781 Z M 476.875 554.324219 L 466.242188 554.324219 C 461.855469 554.324219 458.527344 552.945312 456.175781 550.109375 C 453.984375 547.519531 452.929688 544.054688 452.929688 539.609375 L 452.929688 502.1875 L 461.941406 502.1875 L 461.941406 535.976562 C 461.941406 539.925781 462.839844 542.515625 464.546875 543.726562 C 465.757812 544.613281 468.105469 545.097656 471.523438 545.097656 L 476.886719 545.097656 L 476.886719 554.3125 L 476.875 554.3125 Z M 476.875 554.324219 "/>
<path style=" stroke:none;fill-rule:nonzero;fill:rgb(94.901961%,1.960784%,9.803922%);fill-opacity:1;" d="M 533.289062 545.109375 L 533.445312 542.515625 C 533.445312 532.089844 528.578125 525.550781 520.875 525.550781 C 511.777344 525.550781 502.113281 533.953125 497.089844 545.109375 Z M 552.277344 554.3125 L 471.765625 554.3125 L 471.765625 545.109375 L 480.847656 545.109375 C 485.484375 545.109375 487.75 541.949219 487.75 535.566406 L 487.75 521.492188 L 496.835938 521.492188 L 496.835938 532.730469 C 504.078125 522.945312 513.003906 517.445312 521.757812 517.445312 C 535.480469 517.445312 542.46875 526.75 542.710938 545.097656 L 552.277344 545.097656 Z M 552.277344 554.3125 "/>
<path style=" stroke:none;fill-rule:nonzero;fill:rgb(94.901961%,1.960784%,9.803922%);fill-opacity:1;" d="M 573.617188 510.179688 L 564.691406 510.179688 L 564.691406 501.21875 L 573.617188 501.21875 Z M 573.859375 539.683594 C 573.859375 549.46875 569.308594 554.3125 560.296875 554.3125 L 550.730469 554.3125 L 550.730469 545.109375 L 558.359375 545.109375 C 561.363281 545.109375 563.226562 544.210938 564.125 542.433594 C 564.535156 541.464844 564.777344 539.527344 564.777344 536.605469 L 564.777344 517.617188 L 573.859375 517.617188 Z M 558.273438 510.179688 L 549.347656 510.179688 L 549.347656 501.21875 L 558.273438 501.21875 Z M 591.226562 502.101562 L 582.21875 502.101562 L 582.21875 554.3125 L 591.226562 554.3125 Z M 191.621094 441.765625 C 229.566406 441.765625 258.28125 428.007812 278.144531 408.582031 C 298.394531 429.167969 328.757812 441.824219 365.914062 441.824219 C 411.730469 441.824219 448.933594 423.683594 477.554688 395.535156 L 514.296875 435.601562 L 591.980469 435.601562 L 512.3125 349.40625 C 530.535156 317.082031 541.90625 281.359375 545.726562 244.449219 L 488.476562 244.449219 C 487.21875 266.453125 482.714844 288.148438 475.117188 308.832031 C 468.355469 327.605469 458.34375 345.046875 445.542969 360.355469 C 426.941406 381.828125 403.105469 395.65625 375.890625 395.65625 C 343.773438 395.65625 321.730469 381.898438 313.363281 358.886719 L 252.152344 358.886719 C 242.136719 382.746094 218.773438 394.675781 189.199219 394.675781 C 156.742188 394.675781 123.339844 371.300781 119.546875 323.585938 L 311.011719 323.585938 C 315.90625 300.113281 334.484375 282.503906 364.507812 271.144531 C 364.507812 271.144531 392.277344 260.898438 419.855469 249.113281 C 458.019531 231.480469 486.636719 199.992188 486.636719 159.890625 C 486.636719 103.125 437.984375 83.589844 394.09375 83.589844 C 338.746094 83.589844 297.777344 112.683594 297.777344 158.96875 C 297.777344 186.160156 312.585938 211.90625 334.519531 237.667969 C 322.96875 241.75 311.886719 247.066406 301.492188 253.546875 C 283.824219 204.8125 243.15625 173.226562 187.832031 173.226562 C 114.824219 173.226562 61.875 228.089844 61.875 305.308594 C 61.875 382.53125 109.109375 441.753906 191.632812 441.753906 L 191.621094 441.753906 Z M 394.496094 126.695312 L 394.496094 126.5 C 415.472656 126.5 432.644531 138.417969 432.644531 161.804688 C 432.644531 183.265625 419.769531 204.265625 390.667969 217.152344 L 390.207031 216.65625 C 373.011719 198.511719 356.792969 177.550781 356.792969 157.515625 C 356.792969 137.484375 374.4375 126.695312 394.496094 126.695312 Z M 187.757812 217.671875 L 187.757812 217.5625 C 221.148438 217.5625 251.707031 241.917969 253.132812 281.996094 L 119.535156 281.996094 C 124.296875 233.441406 161.042969 217.671875 187.757812 217.671875 Z M 187.757812 217.671875 "/>
</g>
</svg>
